<mxfile host="app.diagrams.net" modified="2021-08-24T09:12:55.813Z" agent="5.0 (Macintosh; Intel Mac OS X 10_15_7) AppleWebKit/605.1.15 (KHTML, like Gecko) Version/14.1.2 Safari/605.1.15" etag="ZKCw36OABFua1qnMjdBc" version="14.9.7" type="github">
  <diagram id="TrW8HZQNBJCdvcexiAwb" name="Page-1">
    <mxGraphModel dx="652" dy="428" grid="0" gridSize="10" guides="1" tooltips="1" connect="1" arrows="1" fold="1" page="1" pageScale="1" pageWidth="827" pageHeight="1169" math="0" shadow="0">
      <root>
        <mxCell id="0" />
        <mxCell id="1" parent="0" />
        <mxCell id="2M9kW75AndiW6GH-XgvJ-2" value="5" style="whiteSpace=wrap;html=1;aspect=fixed;" vertex="1" parent="1">
          <mxGeometry x="259" y="174" width="32" height="32" as="geometry" />
        </mxCell>
        <mxCell id="2M9kW75AndiW6GH-XgvJ-3" value="1" style="whiteSpace=wrap;html=1;aspect=fixed;" vertex="1" parent="1">
          <mxGeometry x="291" y="174" width="32" height="32" as="geometry" />
        </mxCell>
        <mxCell id="2M9kW75AndiW6GH-XgvJ-4" value="16" style="whiteSpace=wrap;html=1;aspect=fixed;" vertex="1" parent="1">
          <mxGeometry x="323" y="174" width="32" height="32" as="geometry" />
        </mxCell>
        <mxCell id="2M9kW75AndiW6GH-XgvJ-5" value="2" style="whiteSpace=wrap;html=1;aspect=fixed;" vertex="1" parent="1">
          <mxGeometry x="355" y="174" width="32" height="32" as="geometry" />
        </mxCell>
        <mxCell id="2M9kW75AndiW6GH-XgvJ-6" value="44" style="whiteSpace=wrap;html=1;aspect=fixed;" vertex="1" parent="1">
          <mxGeometry x="387" y="174" width="32" height="32" as="geometry" />
        </mxCell>
        <mxCell id="2M9kW75AndiW6GH-XgvJ-7" value="30" style="whiteSpace=wrap;html=1;aspect=fixed;" vertex="1" parent="1">
          <mxGeometry x="419" y="174" width="32" height="32" as="geometry" />
        </mxCell>
        <mxCell id="2M9kW75AndiW6GH-XgvJ-8" value="1" style="whiteSpace=wrap;html=1;aspect=fixed;strokeColor=#7EA6E0;fontColor=#7EA6E0;" vertex="1" parent="1">
          <mxGeometry x="259" y="238" width="32" height="32" as="geometry" />
        </mxCell>
        <mxCell id="2M9kW75AndiW6GH-XgvJ-9" value="2" style="whiteSpace=wrap;html=1;aspect=fixed;strokeColor=#7EA6E0;fontColor=#7EA6E0;" vertex="1" parent="1">
          <mxGeometry x="291" y="238" width="32" height="32" as="geometry" />
        </mxCell>
        <mxCell id="2M9kW75AndiW6GH-XgvJ-10" value="5" style="whiteSpace=wrap;html=1;aspect=fixed;strokeColor=#7EA6E0;fontColor=#7EA6E0;" vertex="1" parent="1">
          <mxGeometry x="323" y="238" width="32" height="32" as="geometry" />
        </mxCell>
        <mxCell id="2M9kW75AndiW6GH-XgvJ-11" value="16" style="whiteSpace=wrap;html=1;aspect=fixed;strokeColor=#7EA6E0;fontColor=#7EA6E0;" vertex="1" parent="1">
          <mxGeometry x="355" y="238" width="32" height="32" as="geometry" />
        </mxCell>
        <mxCell id="2M9kW75AndiW6GH-XgvJ-12" value="30" style="whiteSpace=wrap;html=1;aspect=fixed;strokeColor=#7EA6E0;fontColor=#7EA6E0;" vertex="1" parent="1">
          <mxGeometry x="387" y="238" width="32" height="32" as="geometry" />
        </mxCell>
        <mxCell id="2M9kW75AndiW6GH-XgvJ-13" value="44" style="whiteSpace=wrap;html=1;aspect=fixed;strokeColor=#7EA6E0;fontColor=#7EA6E0;" vertex="1" parent="1">
          <mxGeometry x="419" y="238" width="32" height="32" as="geometry" />
        </mxCell>
        <mxCell id="2M9kW75AndiW6GH-XgvJ-14" value="" style="whiteSpace=wrap;html=1;aspect=fixed;" vertex="1" parent="1">
          <mxGeometry x="259" y="325" width="32" height="32" as="geometry" />
        </mxCell>
        <mxCell id="2M9kW75AndiW6GH-XgvJ-15" value="" style="whiteSpace=wrap;html=1;aspect=fixed;" vertex="1" parent="1">
          <mxGeometry x="291" y="325" width="32" height="32" as="geometry" />
        </mxCell>
        <mxCell id="2M9kW75AndiW6GH-XgvJ-16" value="" style="whiteSpace=wrap;html=1;aspect=fixed;" vertex="1" parent="1">
          <mxGeometry x="323" y="325" width="32" height="32" as="geometry" />
        </mxCell>
        <mxCell id="2M9kW75AndiW6GH-XgvJ-17" value="" style="whiteSpace=wrap;html=1;aspect=fixed;" vertex="1" parent="1">
          <mxGeometry x="355" y="325" width="32" height="32" as="geometry" />
        </mxCell>
        <mxCell id="2M9kW75AndiW6GH-XgvJ-18" value="" style="whiteSpace=wrap;html=1;aspect=fixed;" vertex="1" parent="1">
          <mxGeometry x="387" y="325" width="32" height="32" as="geometry" />
        </mxCell>
        <mxCell id="2M9kW75AndiW6GH-XgvJ-19" value="" style="whiteSpace=wrap;html=1;aspect=fixed;" vertex="1" parent="1">
          <mxGeometry x="419" y="325" width="32" height="32" as="geometry" />
        </mxCell>
        <mxCell id="2M9kW75AndiW6GH-XgvJ-20" value="1" style="whiteSpace=wrap;html=1;aspect=fixed;strokeColor=#7EA6E0;fontColor=#7EA6E0;" vertex="1" parent="1">
          <mxGeometry x="259" y="389" width="32" height="32" as="geometry" />
        </mxCell>
        <mxCell id="2M9kW75AndiW6GH-XgvJ-21" value="2" style="whiteSpace=wrap;html=1;aspect=fixed;strokeColor=#7EA6E0;fontColor=#7EA6E0;" vertex="1" parent="1">
          <mxGeometry x="291" y="389" width="32" height="32" as="geometry" />
        </mxCell>
        <mxCell id="2M9kW75AndiW6GH-XgvJ-22" value="5" style="whiteSpace=wrap;html=1;aspect=fixed;strokeColor=#7EA6E0;fontColor=#7EA6E0;" vertex="1" parent="1">
          <mxGeometry x="323" y="389" width="32" height="32" as="geometry" />
        </mxCell>
        <mxCell id="2M9kW75AndiW6GH-XgvJ-23" value="16" style="whiteSpace=wrap;html=1;aspect=fixed;strokeColor=#7EA6E0;fontColor=#7EA6E0;" vertex="1" parent="1">
          <mxGeometry x="355" y="389" width="32" height="32" as="geometry" />
        </mxCell>
        <mxCell id="2M9kW75AndiW6GH-XgvJ-24" value="30" style="whiteSpace=wrap;html=1;aspect=fixed;strokeColor=#7EA6E0;fontColor=#7EA6E0;" vertex="1" parent="1">
          <mxGeometry x="387" y="389" width="32" height="32" as="geometry" />
        </mxCell>
        <mxCell id="2M9kW75AndiW6GH-XgvJ-25" value="44" style="whiteSpace=wrap;html=1;aspect=fixed;strokeColor=#7EA6E0;fontColor=#7EA6E0;" vertex="1" parent="1">
          <mxGeometry x="419" y="389" width="32" height="32" as="geometry" />
        </mxCell>
        <mxCell id="2M9kW75AndiW6GH-XgvJ-26" value="5" style="whiteSpace=wrap;html=1;aspect=fixed;" vertex="1" parent="1">
          <mxGeometry x="261" y="480" width="32" height="32" as="geometry" />
        </mxCell>
        <mxCell id="2M9kW75AndiW6GH-XgvJ-27" value="1" style="whiteSpace=wrap;html=1;aspect=fixed;" vertex="1" parent="1">
          <mxGeometry x="293" y="480" width="32" height="32" as="geometry" />
        </mxCell>
        <mxCell id="2M9kW75AndiW6GH-XgvJ-41" style="edgeStyle=orthogonalEdgeStyle;rounded=0;orthogonalLoop=1;jettySize=auto;html=1;exitX=1;exitY=1;exitDx=0;exitDy=0;entryX=0.5;entryY=0;entryDx=0;entryDy=0;fontColor=#7EA6E0;" edge="1" parent="1" source="2M9kW75AndiW6GH-XgvJ-28" target="2M9kW75AndiW6GH-XgvJ-40">
          <mxGeometry relative="1" as="geometry" />
        </mxCell>
        <mxCell id="2M9kW75AndiW6GH-XgvJ-28" value="16" style="whiteSpace=wrap;html=1;aspect=fixed;" vertex="1" parent="1">
          <mxGeometry x="325" y="480" width="32" height="32" as="geometry" />
        </mxCell>
        <mxCell id="2M9kW75AndiW6GH-XgvJ-29" value="2" style="whiteSpace=wrap;html=1;aspect=fixed;" vertex="1" parent="1">
          <mxGeometry x="357" y="480" width="32" height="32" as="geometry" />
        </mxCell>
        <mxCell id="2M9kW75AndiW6GH-XgvJ-30" value="44" style="whiteSpace=wrap;html=1;aspect=fixed;" vertex="1" parent="1">
          <mxGeometry x="389" y="480" width="32" height="32" as="geometry" />
        </mxCell>
        <mxCell id="2M9kW75AndiW6GH-XgvJ-31" value="30" style="whiteSpace=wrap;html=1;aspect=fixed;" vertex="1" parent="1">
          <mxGeometry x="421" y="480" width="32" height="32" as="geometry" />
        </mxCell>
        <mxCell id="2M9kW75AndiW6GH-XgvJ-32" value="1" style="whiteSpace=wrap;html=1;aspect=fixed;" vertex="1" parent="1">
          <mxGeometry x="261" y="587" width="32" height="32" as="geometry" />
        </mxCell>
        <mxCell id="2M9kW75AndiW6GH-XgvJ-33" value="2" style="whiteSpace=wrap;html=1;aspect=fixed;" vertex="1" parent="1">
          <mxGeometry x="293" y="587" width="32" height="32" as="geometry" />
        </mxCell>
        <mxCell id="2M9kW75AndiW6GH-XgvJ-34" value="5" style="whiteSpace=wrap;html=1;aspect=fixed;" vertex="1" parent="1">
          <mxGeometry x="325" y="587" width="32" height="32" as="geometry" />
        </mxCell>
        <mxCell id="2M9kW75AndiW6GH-XgvJ-35" value="16" style="whiteSpace=wrap;html=1;aspect=fixed;" vertex="1" parent="1">
          <mxGeometry x="357" y="587" width="32" height="32" as="geometry" />
        </mxCell>
        <mxCell id="2M9kW75AndiW6GH-XgvJ-36" value="30" style="whiteSpace=wrap;html=1;aspect=fixed;" vertex="1" parent="1">
          <mxGeometry x="389" y="587" width="32" height="32" as="geometry" />
        </mxCell>
        <mxCell id="2M9kW75AndiW6GH-XgvJ-37" value="44" style="whiteSpace=wrap;html=1;aspect=fixed;" vertex="1" parent="1">
          <mxGeometry x="421" y="587" width="32" height="32" as="geometry" />
        </mxCell>
        <mxCell id="2M9kW75AndiW6GH-XgvJ-42" style="edgeStyle=orthogonalEdgeStyle;rounded=0;orthogonalLoop=1;jettySize=auto;html=1;exitX=0.5;exitY=1;exitDx=0;exitDy=0;entryX=1;entryY=0;entryDx=0;entryDy=0;fontColor=#000000;" edge="1" parent="1" source="2M9kW75AndiW6GH-XgvJ-40" target="2M9kW75AndiW6GH-XgvJ-34">
          <mxGeometry relative="1" as="geometry" />
        </mxCell>
        <mxCell id="2M9kW75AndiW6GH-XgvJ-40" value="&lt;font color=&quot;#000000&quot;&gt;Sortiere&lt;/font&gt;" style="rounded=0;whiteSpace=wrap;html=1;fillColor=#dae8fc;strokeColor=#6c8ebf;" vertex="1" parent="1">
          <mxGeometry x="329" y="538" width="57" height="25" as="geometry" />
        </mxCell>
      </root>
    </mxGraphModel>
  </diagram>
</mxfile>
